<mxfile host="app.diagrams.net" modified="2022-11-29T09:18:23.974Z" agent="5.0 (X11; Linux x86_64) AppleWebKit/537.36 (KHTML, like Gecko) Chrome/107.0.0.0 Safari/537.36" version="20.6.0" etag="_1YKJCd7KIjA42fypesA" type="github">
  <diagram id="BUpwUjb0ULaxSuZtzYWh" name="Page-1">
    <mxGraphModel dx="1635" dy="842" grid="0" gridSize="10" guides="1" tooltips="1" connect="1" arrows="1" fold="1" page="1" pageScale="1" pageWidth="1700" pageHeight="1100" math="0" shadow="0">
      <root>
        <mxCell id="0" />
        <mxCell id="1" parent="0" />
        <mxCell id="0XBWgx2gWtxwsbYNTwGq-11" value="" style="whiteSpace=wrap;html=1;aspect=fixed;" vertex="1" parent="1">
          <mxGeometry x="22" y="274.5" width="492" height="492" as="geometry" />
        </mxCell>
        <mxCell id="0XBWgx2gWtxwsbYNTwGq-9" value="" style="whiteSpace=wrap;html=1;aspect=fixed;" vertex="1" parent="1">
          <mxGeometry x="225.48" y="332.56" width="80" height="80" as="geometry" />
        </mxCell>
        <mxCell id="0XBWgx2gWtxwsbYNTwGq-10" value="" style="rounded=0;whiteSpace=wrap;html=1;" vertex="1" parent="1">
          <mxGeometry x="143" y="458.5" width="227" height="120" as="geometry" />
        </mxCell>
        <mxCell id="0XBWgx2gWtxwsbYNTwGq-3" value="" style="verticalLabelPosition=bottom;sketch=0;aspect=fixed;html=1;verticalAlign=top;strokeColor=none;align=center;outlineConnect=0;shape=mxgraph.citrix.smtp_server;" vertex="1" parent="1">
          <mxGeometry x="133" y="678" width="42.13" height="51" as="geometry" />
        </mxCell>
        <mxCell id="0XBWgx2gWtxwsbYNTwGq-4" value="" style="verticalLabelPosition=bottom;sketch=0;aspect=fixed;html=1;verticalAlign=top;strokeColor=none;align=center;outlineConnect=0;shape=mxgraph.citrix.dns_server;" vertex="1" parent="1">
          <mxGeometry x="246" y="349" width="38.97" height="47.12" as="geometry" />
        </mxCell>
        <mxCell id="0XBWgx2gWtxwsbYNTwGq-5" value="" style="verticalLabelPosition=bottom;sketch=0;aspect=fixed;html=1;verticalAlign=top;strokeColor=none;align=center;outlineConnect=0;shape=mxgraph.citrix.license_server;" vertex="1" parent="1">
          <mxGeometry x="366" y="677.5" width="37.85" height="49.5" as="geometry" />
        </mxCell>
        <mxCell id="0XBWgx2gWtxwsbYNTwGq-6" value="" style="sketch=0;pointerEvents=1;shadow=0;dashed=0;html=1;strokeColor=none;fillColor=#505050;labelPosition=center;verticalLabelPosition=bottom;verticalAlign=top;outlineConnect=0;align=center;shape=mxgraph.office.servers.certificate_authority;" vertex="1" parent="1">
          <mxGeometry x="39" y="491" width="46" height="59" as="geometry" />
        </mxCell>
        <mxCell id="0XBWgx2gWtxwsbYNTwGq-7" value="" style="sketch=0;pointerEvents=1;shadow=0;dashed=0;html=1;strokeColor=none;fillColor=#505050;labelPosition=center;verticalLabelPosition=bottom;verticalAlign=top;outlineConnect=0;align=center;shape=mxgraph.office.servers.certificate_authority;" vertex="1" parent="1">
          <mxGeometry x="312" y="491" width="34" height="52" as="geometry" />
        </mxCell>
        <mxCell id="0XBWgx2gWtxwsbYNTwGq-8" value="" style="sketch=0;pointerEvents=1;shadow=0;dashed=0;html=1;strokeColor=none;fillColor=#505050;labelPosition=center;verticalLabelPosition=bottom;verticalAlign=top;outlineConnect=0;align=center;shape=mxgraph.office.servers.certificate_authority;" vertex="1" parent="1">
          <mxGeometry x="169" y="491" width="35" height="55" as="geometry" />
        </mxCell>
        <mxCell id="0XBWgx2gWtxwsbYNTwGq-16" value="" style="rounded=0;whiteSpace=wrap;html=1;" vertex="1" parent="1">
          <mxGeometry x="438" y="66" width="234" height="139" as="geometry" />
        </mxCell>
        <mxCell id="0XBWgx2gWtxwsbYNTwGq-17" value="" style="rounded=0;whiteSpace=wrap;html=1;" vertex="1" parent="1">
          <mxGeometry x="901" y="66" width="181" height="139" as="geometry" />
        </mxCell>
        <mxCell id="0XBWgx2gWtxwsbYNTwGq-18" value="" style="rounded=0;whiteSpace=wrap;html=1;" vertex="1" parent="1">
          <mxGeometry x="685" y="66" width="198" height="139" as="geometry" />
        </mxCell>
        <mxCell id="0XBWgx2gWtxwsbYNTwGq-21" value="" style="sketch=0;aspect=fixed;pointerEvents=1;shadow=0;dashed=0;html=1;strokeColor=none;labelPosition=center;verticalLabelPosition=bottom;verticalAlign=top;align=center;fillColor=#00188D;shape=mxgraph.mscae.enterprise.windows_server" vertex="1" parent="1">
          <mxGeometry x="501" y="79" width="42.9" height="55" as="geometry" />
        </mxCell>
        <mxCell id="0XBWgx2gWtxwsbYNTwGq-23" value="" style="aspect=fixed;perimeter=ellipsePerimeter;html=1;align=center;shadow=0;dashed=0;spacingTop=3;image;image=img/lib/active_directory/windows_server_2.svg;" vertex="1" parent="1">
          <mxGeometry x="579" y="79" width="43.2" height="54" as="geometry" />
        </mxCell>
        <mxCell id="0XBWgx2gWtxwsbYNTwGq-26" value="" style="fontColor=#0066CC;verticalAlign=top;verticalLabelPosition=bottom;labelPosition=center;align=center;html=1;outlineConnect=0;fillColor=#CCCCCC;strokeColor=#6881B3;gradientColor=none;gradientDirection=north;strokeWidth=2;shape=mxgraph.networks.laptop;" vertex="1" parent="1">
          <mxGeometry x="445" y="156" width="69" height="38" as="geometry" />
        </mxCell>
        <mxCell id="0XBWgx2gWtxwsbYNTwGq-28" value="" style="verticalLabelPosition=bottom;html=1;verticalAlign=top;align=center;strokeColor=none;fillColor=#00BEF2;shape=mxgraph.azure.computer;pointerEvents=1;" vertex="1" parent="1">
          <mxGeometry x="803" y="107" width="50" height="45" as="geometry" />
        </mxCell>
        <mxCell id="0XBWgx2gWtxwsbYNTwGq-29" value="" style="fontColor=#0066CC;verticalAlign=top;verticalLabelPosition=bottom;labelPosition=center;align=center;html=1;outlineConnect=0;fillColor=#CCCCCC;strokeColor=#6881B3;gradientColor=none;gradientDirection=north;strokeWidth=2;shape=mxgraph.networks.pc;" vertex="1" parent="1">
          <mxGeometry x="587" y="149.5" width="59" height="51" as="geometry" />
        </mxCell>
        <mxCell id="0XBWgx2gWtxwsbYNTwGq-30" value="" style="aspect=fixed;perimeter=ellipsePerimeter;html=1;align=center;shadow=0;dashed=0;spacingTop=3;image;image=img/lib/active_directory/windows_server_2.svg;" vertex="1" parent="1">
          <mxGeometry x="727" y="99" width="45.6" height="57" as="geometry" />
        </mxCell>
        <mxCell id="0XBWgx2gWtxwsbYNTwGq-31" value="" style="fontColor=#0066CC;verticalAlign=top;verticalLabelPosition=bottom;labelPosition=center;align=center;html=1;outlineConnect=0;fillColor=#CCCCCC;strokeColor=#6881B3;gradientColor=none;gradientDirection=north;strokeWidth=2;shape=mxgraph.networks.laptop;" vertex="1" parent="1">
          <mxGeometry x="958" y="143.5" width="67" height="44" as="geometry" />
        </mxCell>
        <mxCell id="0XBWgx2gWtxwsbYNTwGq-32" value="" style="fontColor=#0066CC;verticalAlign=top;verticalLabelPosition=bottom;labelPosition=center;align=center;html=1;outlineConnect=0;fillColor=#CCCCCC;strokeColor=#6881B3;gradientColor=none;gradientDirection=north;strokeWidth=2;shape=mxgraph.networks.pc;" vertex="1" parent="1">
          <mxGeometry x="915" y="83" width="56" height="46" as="geometry" />
        </mxCell>
        <mxCell id="0XBWgx2gWtxwsbYNTwGq-33" value="" style="fontColor=#0066CC;verticalAlign=top;verticalLabelPosition=bottom;labelPosition=center;align=center;html=1;outlineConnect=0;fillColor=#CCCCCC;strokeColor=#6881B3;gradientColor=none;gradientDirection=north;strokeWidth=2;shape=mxgraph.networks.desktop_pc;" vertex="1" parent="1">
          <mxGeometry x="1024" y="86" width="28" height="42" as="geometry" />
        </mxCell>
        <mxCell id="0XBWgx2gWtxwsbYNTwGq-37" value="" style="sketch=0;aspect=fixed;pointerEvents=1;shadow=0;dashed=0;html=1;strokeColor=none;labelPosition=center;verticalLabelPosition=bottom;verticalAlign=top;align=center;fillColor=#00188D;shape=mxgraph.azure.certificate" vertex="1" parent="1">
          <mxGeometry x="1034" y="114" width="40" height="32" as="geometry" />
        </mxCell>
        <mxCell id="0XBWgx2gWtxwsbYNTwGq-40" value="" style="sketch=0;aspect=fixed;pointerEvents=1;shadow=0;dashed=0;html=1;strokeColor=none;labelPosition=center;verticalLabelPosition=bottom;verticalAlign=top;align=center;fillColor=#00188D;shape=mxgraph.azure.certificate" vertex="1" parent="1">
          <mxGeometry x="905" y="119.5" width="40" height="32" as="geometry" />
        </mxCell>
        <mxCell id="0XBWgx2gWtxwsbYNTwGq-41" value="" style="sketch=0;aspect=fixed;pointerEvents=1;shadow=0;dashed=0;html=1;strokeColor=none;labelPosition=center;verticalLabelPosition=bottom;verticalAlign=top;align=center;fillColor=#00188D;shape=mxgraph.azure.certificate" vertex="1" parent="1">
          <mxGeometry x="1000" y="170" width="40" height="32" as="geometry" />
        </mxCell>
        <mxCell id="0XBWgx2gWtxwsbYNTwGq-43" value="" style="sketch=0;aspect=fixed;pointerEvents=1;shadow=0;dashed=0;html=1;strokeColor=none;labelPosition=center;verticalLabelPosition=bottom;verticalAlign=top;align=center;fillColor=#00188D;shape=mxgraph.azure.certificate" vertex="1" parent="1">
          <mxGeometry x="497" y="174" width="38.75" height="31" as="geometry" />
        </mxCell>
        <mxCell id="0XBWgx2gWtxwsbYNTwGq-45" value="" style="sketch=0;aspect=fixed;pointerEvents=1;shadow=0;dashed=0;html=1;strokeColor=none;labelPosition=center;verticalLabelPosition=bottom;verticalAlign=top;align=center;fillColor=#00188D;shape=mxgraph.azure.certificate" vertex="1" parent="1">
          <mxGeometry x="632" y="170" width="43.13" height="34.5" as="geometry" />
        </mxCell>
        <mxCell id="0XBWgx2gWtxwsbYNTwGq-47" value="" style="shape=image;html=1;verticalAlign=top;verticalLabelPosition=bottom;labelBackgroundColor=#ffffff;imageAspect=0;aspect=fixed;image=https://cdn1.iconfinder.com/data/icons/hawcons/32/698401-icon-137-document-certificate-128.png" vertex="1" parent="1">
          <mxGeometry x="830" y="138" width="40" height="40" as="geometry" />
        </mxCell>
        <mxCell id="0XBWgx2gWtxwsbYNTwGq-52" value="" style="shape=image;html=1;verticalAlign=top;verticalLabelPosition=bottom;labelBackgroundColor=#ffffff;imageAspect=0;aspect=fixed;image=https://cdn1.iconfinder.com/data/icons/hawcons/32/698401-icon-137-document-certificate-128.png" vertex="1" parent="1">
          <mxGeometry x="557" y="112" width="40" height="40" as="geometry" />
        </mxCell>
        <mxCell id="0XBWgx2gWtxwsbYNTwGq-53" value="" style="shape=image;html=1;verticalAlign=top;verticalLabelPosition=bottom;labelBackgroundColor=#ffffff;imageAspect=0;aspect=fixed;image=https://cdn1.iconfinder.com/data/icons/hawcons/32/698401-icon-137-document-certificate-128.png" vertex="1" parent="1">
          <mxGeometry x="474" y="111.5" width="40" height="40" as="geometry" />
        </mxCell>
        <mxCell id="0XBWgx2gWtxwsbYNTwGq-55" value="" style="shape=image;html=1;verticalAlign=top;verticalLabelPosition=bottom;labelBackgroundColor=#ffffff;imageAspect=0;aspect=fixed;image=https://cdn1.iconfinder.com/data/icons/hawcons/32/698401-icon-137-document-certificate-128.png" vertex="1" parent="1">
          <mxGeometry x="702" y="141" width="40" height="40" as="geometry" />
        </mxCell>
        <mxCell id="0XBWgx2gWtxwsbYNTwGq-56" value="" style="rounded=0;whiteSpace=wrap;html=1;" vertex="1" parent="1">
          <mxGeometry x="652" y="273" width="883" height="553" as="geometry" />
        </mxCell>
      </root>
    </mxGraphModel>
  </diagram>
</mxfile>
